<?xml version="1.0" encoding="UTF-8" ?>
<!DOCTYPE svg PUBLIC "-//W3C//DTD SVG 1.1//EN" "http://www.w3.org/Graphics/SVG/1.1/DTD/svg11.dtd">
<svg width="889pt" height="641pt" viewBox="0 0 889 641" version="1.1" xmlns="http://www.w3.org/2000/svg">
<g id="#181661ff">
<path fill="#181661" opacity="1.00" d=" M 0.00 0.00 L 889.00 0.00 L 889.00 353.92 C 880.69 353.68 872.41 354.75 864.13 355.15 C 856.02 356.89 847.76 358.30 839.90 360.98 C 834.66 363.92 828.65 365.23 823.71 368.73 C 820.33 370.86 816.20 371.48 813.00 373.95 C 808.22 377.58 802.77 380.33 798.55 384.66 C 795.75 387.56 792.72 390.20 789.43 392.51 C 785.84 394.91 784.71 399.69 780.84 401.76 C 778.51 403.19 776.26 404.75 774.12 406.45 C 770.02 398.89 766.61 390.98 762.60 383.36 C 759.00 376.49 756.37 369.14 752.39 362.48 C 744.02 348.87 731.79 337.68 717.54 330.47 C 715.86 329.62 713.93 329.60 712.13 329.31 C 708.01 327.39 703.64 326.14 699.20 325.23 C 697.11 324.95 697.74 322.42 697.64 320.95 C 699.97 313.71 701.49 306.25 703.53 298.93 C 704.75 294.79 704.93 290.31 706.98 286.44 C 710.34 286.52 714.22 287.31 716.98 284.84 C 723.05 280.08 724.86 271.56 722.99 264.32 C 723.01 258.56 716.94 256.78 713.36 253.57 C 712.04 252.69 712.42 250.98 712.17 249.65 C 714.32 249.81 716.50 250.13 718.65 249.78 C 722.98 242.56 720.21 233.85 721.04 225.96 C 720.99 224.09 722.56 222.90 723.64 221.59 C 728.20 217.15 728.79 210.11 727.81 204.15 C 726.54 200.79 723.56 198.47 721.41 195.68 C 719.22 192.74 715.34 192.25 712.16 190.94 C 712.13 186.82 712.46 182.62 711.48 178.58 C 710.92 176.05 708.70 174.52 706.79 173.04 C 703.81 170.87 700.81 168.42 697.09 167.75 C 689.77 166.43 682.29 166.51 674.91 165.87 C 669.70 165.39 665.46 161.38 660.18 161.35 C 656.64 161.81 653.33 163.44 650.41 165.42 C 648.36 166.80 647.99 169.44 647.07 171.55 C 641.07 172.52 635.02 171.63 629.00 171.84 C 624.51 171.70 620.82 174.95 618.42 178.41 C 615.78 182.69 617.49 187.76 617.54 192.41 C 617.54 196.85 613.56 201.35 616.31 205.63 C 619.05 210.27 625.25 209.76 629.16 212.81 C 630.71 213.91 630.54 215.94 630.46 217.61 C 629.71 228.81 626.11 239.70 626.59 251.00 C 626.95 260.70 625.64 270.61 628.25 280.09 C 628.72 279.03 629.19 277.98 629.63 276.91 C 631.56 287.11 635.74 297.19 643.60 304.25 C 645.49 306.18 647.11 308.36 648.42 310.73 C 646.63 315.49 646.20 320.64 644.17 325.33 C 630.63 325.06 618.04 330.53 605.36 334.45 C 580.13 343.15 555.53 353.53 530.49 362.74 C 524.57 364.92 518.75 367.52 512.54 368.77 C 509.86 369.18 507.39 370.37 504.99 371.57 C 504.97 372.90 505.00 374.25 504.95 375.59 C 504.79 374.47 504.63 373.35 504.49 372.23 C 503.36 373.24 502.23 374.25 501.11 375.26 C 500.43 375.05 499.06 374.64 498.38 374.43 C 497.96 371.62 497.61 368.79 497.61 365.96 C 497.63 351.64 497.66 337.33 497.63 323.02 C 497.53 318.34 499.74 314.10 500.93 309.69 C 502.62 304.17 505.97 299.03 505.78 293.07 C 508.45 282.77 509.79 272.10 509.55 261.46 C 509.80 257.43 509.72 253.32 508.16 249.53 C 503.00 254.93 503.71 263.14 502.90 270.04 C 502.61 272.25 502.30 274.46 501.81 276.63 C 495.34 276.67 488.90 276.13 482.48 275.33 C 476.54 280.56 474.84 288.69 472.54 295.91 C 470.96 300.52 470.17 305.33 468.92 310.03 C 461.02 330.27 454.82 351.38 452.62 373.06 C 452.04 384.67 451.79 396.82 456.38 407.73 C 458.36 412.52 461.27 416.96 465.29 420.29 C 464.96 420.83 464.30 421.91 463.96 422.45 C 454.65 422.51 445.34 422.31 436.03 422.41 C 429.87 422.54 423.78 421.44 417.63 421.51 C 422.09 420.90 426.59 420.59 431.10 420.50 C 423.08 419.96 414.94 420.11 407.05 418.44 C 403.41 417.16 399.96 415.08 395.99 415.11 C 392.02 415.15 388.28 413.99 384.63 412.60 C 378.44 411.71 372.30 410.40 366.07 409.90 C 361.59 409.40 357.45 411.67 353.02 411.76 C 344.40 411.93 335.75 413.97 328.20 418.16 C 324.60 420.07 320.21 420.28 317.09 423.12 C 313.16 426.45 307.91 427.61 304.04 431.01 C 299.28 435.00 293.89 438.14 289.21 442.22 C 285.99 444.99 283.30 448.29 280.30 451.28 C 276.37 455.33 271.84 458.83 268.48 463.40 C 263.97 469.51 258.42 474.77 254.12 481.04 C 250.94 485.79 246.09 489.05 242.81 493.71 C 237.54 501.33 230.12 507.09 224.35 514.29 C 222.57 516.52 220.67 518.66 218.44 520.45 C 209.95 527.22 202.50 535.36 193.10 540.94 C 184.61 545.57 176.93 551.78 167.64 554.86 C 159.03 558.91 150.39 563.19 141.00 565.13 C 135.84 565.97 131.28 568.90 126.03 569.31 C 116.27 570.20 106.81 573.30 96.95 573.23 C 80.06 574.78 63.05 573.53 46.27 571.40 C 35.63 568.53 24.68 566.66 14.35 562.72 C 9.62 561.02 4.60 560.19 0.00 558.11 L 0.00 0.00 M 767.50 188.47 C 767.67 193.37 766.36 198.16 766.53 203.06 C 766.47 224.83 766.06 246.61 766.48 268.38 C 769.16 268.34 771.84 268.33 774.53 268.41 L 774.47 267.57 C 783.91 267.71 793.35 267.51 802.79 267.42 C 802.71 269.31 802.51 271.20 801.95 273.01 C 801.57 274.34 801.27 275.70 800.90 277.03 C 799.98 279.55 799.34 282.15 799.02 284.82 C 799.54 284.72 800.58 284.53 801.10 284.43 C 806.28 278.44 812.05 272.97 817.84 267.57 C 822.38 267.55 826.92 267.32 831.46 267.37 L 831.53 266.57 C 837.83 266.74 844.14 266.31 850.44 266.43 L 850.53 265.43 C 851.27 265.50 852.76 265.65 853.51 265.73 L 853.31 264.46 L 854.39 264.36 C 854.79 257.23 854.47 250.09 854.76 242.96 C 856.51 231.61 854.68 220.00 856.48 208.66 C 857.43 208.15 858.38 207.64 859.35 207.13 C 859.38 205.28 859.70 203.22 857.86 202.14 C 857.52 201.92 856.85 201.48 856.51 201.25 C 856.57 198.07 856.59 194.88 856.59 191.70 C 855.68 191.44 854.77 191.17 853.88 190.90 C 841.76 190.67 829.63 190.38 817.50 190.46 L 817.50 189.59 C 806.98 189.60 796.46 189.52 785.95 189.24 C 779.94 187.91 773.63 188.76 767.50 188.47 M 571.29 270.43 C 571.41 272.33 571.51 274.22 571.62 276.13 C 565.07 280.03 562.71 288.91 565.17 295.90 C 568.00 301.81 574.27 306.33 581.02 305.67 C 587.01 306.30 592.63 302.64 595.62 297.63 C 598.77 292.91 597.88 286.83 596.32 281.71 C 593.63 277.56 590.49 273.35 585.94 271.13 C 581.43 269.00 575.94 268.61 571.29 270.43 M 744.51 305.73 C 744.03 309.43 744.19 313.25 745.16 316.87 C 746.80 323.12 747.94 329.50 749.66 335.74 C 751.74 335.57 754.02 335.89 755.84 334.63 C 762.11 330.88 768.24 326.90 774.45 323.04 C 774.52 321.61 774.60 320.18 774.69 318.76 C 767.57 313.50 760.79 307.19 752.09 304.70 C 749.64 304.50 746.24 303.44 744.51 305.73 M 814.53 305.48 C 813.01 307.76 813.20 310.52 813.41 313.12 C 813.78 313.74 814.52 314.99 814.89 315.62 C 815.28 315.52 816.07 315.34 816.46 315.24 L 816.46 316.51 C 817.48 316.50 819.52 316.49 820.54 316.49 L 820.56 315.22 C 820.99 315.36 821.86 315.65 822.29 315.79 C 823.94 312.72 825.13 307.26 821.57 305.15 L 821.38 304.42 C 819.04 304.40 816.68 304.52 814.53 305.48 M 400.52 328.44 C 400.08 336.54 402.94 344.29 404.86 352.05 C 405.18 353.04 405.49 354.03 405.81 355.04 C 407.11 358.27 407.85 361.71 409.12 364.95 C 410.36 366.41 414.33 365.68 413.26 363.11 C 412.00 351.36 409.29 339.86 406.24 328.48 C 404.33 328.43 402.42 328.42 400.52 328.44 M 791.94 349.02 C 790.04 350.22 788.20 351.49 786.40 352.82 C 786.42 353.80 786.46 355.75 786.48 356.72 C 789.15 356.32 791.64 355.22 794.15 354.23 C 797.40 352.77 800.61 351.20 803.88 349.79 C 807.55 347.81 811.33 346.03 814.87 343.82 C 816.85 342.83 818.75 341.67 820.52 340.32 C 820.52 339.42 820.53 337.62 820.54 336.73 C 819.17 335.77 817.56 335.49 815.95 335.49 C 807.71 339.58 799.60 343.93 791.94 349.02 Z" />
<path fill="#181661" opacity="1.00" d=" M 873.06 418.78 C 875.06 418.51 877.06 418.25 879.04 417.78 C 882.35 417.44 885.67 417.30 889.00 417.21 L 889.00 620.18 C 880.05 599.08 864.90 581.15 846.98 567.07 C 835.05 557.67 822.16 549.60 809.40 541.40 C 799.78 535.00 789.97 528.43 782.74 519.26 C 776.38 511.44 775.07 500.64 777.42 491.06 C 779.00 482.62 782.98 474.82 787.92 467.87 C 798.75 452.62 814.48 441.58 830.95 433.15 C 832.42 432.47 833.90 431.80 835.40 431.16 L 835.60 430.34 C 835.94 430.37 836.61 430.44 836.94 430.47 C 839.30 429.10 841.84 428.07 844.46 427.27 L 844.56 426.76 C 845.66 426.46 846.77 426.16 847.89 425.85 C 854.04 423.29 860.57 421.88 866.96 420.11 C 868.99 419.68 871.05 419.33 873.06 418.78 Z" />
<path fill="#181661" opacity="1.00" d=" M 571.58 431.25 C 574.03 431.20 576.48 431.22 578.94 431.21 C 578.51 442.14 572.28 451.74 571.67 462.60 C 570.35 470.98 568.58 479.30 566.57 487.54 C 566.27 488.44 565.97 489.35 565.68 490.26 C 563.11 489.19 560.58 488.04 558.04 486.93 C 553.62 484.86 548.59 484.89 544.11 483.02 C 539.99 481.34 535.80 479.87 531.60 478.47 C 528.10 477.41 525.44 474.85 522.70 472.59 C 518.56 459.94 515.08 447.09 511.15 434.38 C 511.56 434.30 512.40 434.12 512.82 434.03 C 517.35 433.33 521.92 432.84 526.47 432.20 C 527.90 435.20 529.08 438.30 529.98 441.50 C 532.64 441.57 535.36 441.30 537.54 439.61 C 548.91 436.99 560.13 433.50 571.58 431.25 Z" />
<path fill="#181661" opacity="1.00" d=" M 348.33 491.42 C 358.90 489.40 369.73 490.16 380.40 490.61 L 380.55 491.49 C 381.87 491.49 383.21 491.49 384.54 491.50 L 384.45 492.49 C 385.11 492.53 386.43 492.60 387.09 492.64 C 388.77 493.58 390.61 494.17 392.48 494.62 L 392.54 495.29 C 394.89 495.84 397.12 496.83 399.01 498.36 C 399.29 498.41 399.83 498.51 400.11 498.55 C 402.09 500.02 404.15 501.40 406.24 502.71 C 411.08 506.47 415.24 510.98 419.39 515.46 L 419.63 516.38 C 423.58 520.56 425.86 525.91 428.51 530.93 C 428.55 531.20 428.62 531.75 428.66 532.02 C 429.13 533.11 429.49 534.24 429.75 535.42 L 430.50 535.50 C 430.56 536.14 430.66 537.40 430.71 538.04 C 432.11 541.01 432.60 544.30 432.55 547.57 L 433.43 547.46 C 433.60 553.83 433.58 560.20 433.49 566.58 L 432.64 566.48 C 432.68 569.84 431.97 573.13 431.30 576.41 L 430.51 576.52 C 430.53 577.28 430.56 578.80 430.58 579.56 L 429.72 579.46 C 429.33 581.04 428.89 582.61 428.43 584.19 C 427.28 586.24 426.26 588.37 425.34 590.54 L 424.40 590.61 C 424.44 590.98 424.51 591.71 424.55 592.08 C 422.71 594.53 420.95 597.03 419.21 599.55 C 414.92 604.44 410.52 609.45 405.01 613.01 C 403.57 614.35 401.81 615.24 400.14 616.26 C 397.74 617.68 395.28 619.06 392.55 619.75 L 392.41 620.75 C 391.96 620.63 391.04 620.39 390.59 620.27 L 390.45 621.32 C 388.57 621.79 386.72 622.34 384.87 622.88 C 375.67 625.82 366.00 625.72 356.47 625.48 L 356.55 624.64 C 353.51 624.50 350.54 623.86 347.56 623.32 L 347.47 622.59 C 346.12 622.52 344.77 622.46 343.43 622.41 L 343.46 621.09 C 343.00 621.26 342.09 621.62 341.63 621.79 L 341.46 620.74 C 339.83 620.28 338.23 619.76 336.61 619.29 L 336.42 618.71 C 331.39 616.77 327.10 613.46 322.81 610.28 C 318.13 606.57 314.07 602.11 310.72 597.17 C 309.23 595.30 307.93 593.28 306.71 591.23 C 305.73 589.42 304.83 587.56 304.19 585.61 L 303.24 585.38 C 303.37 584.93 303.64 584.03 303.77 583.59 L 302.74 583.46 C 302.29 581.91 301.78 580.39 301.25 578.88 C 300.74 577.46 300.51 575.99 300.35 574.51 L 299.55 574.51 C 299.46 572.97 299.35 571.43 299.22 569.91 C 297.90 565.76 298.31 561.33 298.11 557.04 C 298.29 553.04 297.87 548.88 299.23 545.06 C 299.43 543.18 299.57 541.30 299.70 539.43 L 300.52 539.61 C 300.79 536.81 302.00 534.25 302.73 531.57 L 303.25 531.45 C 303.74 529.41 304.67 527.53 305.69 525.73 C 306.71 523.98 307.67 522.20 308.63 520.43 L 309.64 520.38 C 309.55 519.92 309.38 519.01 309.29 518.55 L 310.21 518.50 C 313.70 513.30 317.94 508.65 322.82 504.74 C 325.99 502.47 328.95 499.83 332.57 498.29 L 332.57 497.31 C 333.03 497.41 333.95 497.59 334.41 497.68 L 334.58 496.33 C 335.05 496.43 335.99 496.64 336.46 496.74 L 336.56 495.75 C 338.77 495.06 340.95 494.26 343.07 493.32 C 344.75 492.33 346.73 492.41 348.62 492.27 L 348.33 491.42 Z" />
</g>
<g id="#251a52ff">
<path fill="#251a52" opacity="1.00" d=" M 650.41 165.42 C 653.33 163.44 656.64 161.81 660.18 161.35 C 665.46 161.38 669.70 165.39 674.91 165.87 C 682.29 166.51 689.77 166.43 697.09 167.75 C 700.81 168.42 703.81 170.87 706.79 173.04 C 708.70 174.52 710.92 176.05 711.48 178.58 C 712.46 182.62 712.13 186.82 712.16 190.94 C 715.34 192.25 719.22 192.74 721.41 195.68 C 723.56 198.47 726.54 200.79 727.81 204.15 C 728.79 210.11 728.20 217.15 723.64 221.59 C 722.56 222.90 720.99 224.09 721.04 225.96 C 720.21 233.85 722.98 242.56 718.65 249.78 C 716.50 250.13 714.32 249.81 712.17 249.65 C 712.42 250.98 712.04 252.69 713.36 253.57 C 716.94 256.78 723.01 258.56 722.99 264.32 C 719.99 260.78 716.21 257.27 711.27 257.25 C 705.88 251.30 702.44 243.87 700.08 236.27 C 697.56 226.83 695.75 217.16 695.18 207.39 C 694.61 207.44 693.46 207.52 692.88 207.56 C 684.22 212.82 673.72 213.42 663.91 212.18 C 660.56 211.40 657.26 210.38 653.83 210.06 C 649.02 214.35 644.06 218.69 638.15 221.36 C 636.01 221.70 633.85 221.57 631.71 221.57 C 631.92 228.49 629.48 235.11 629.42 242.00 C 629.04 253.64 628.88 265.29 629.63 276.91 C 629.19 277.98 628.72 279.03 628.25 280.09 C 625.64 270.61 626.95 260.70 626.59 251.00 C 626.11 239.70 629.71 228.81 630.46 217.61 C 630.54 215.94 630.71 213.91 629.16 212.81 C 625.25 209.76 619.05 210.27 616.31 205.63 C 613.56 201.35 617.54 196.85 617.54 192.41 C 617.49 187.76 615.78 182.69 618.42 178.41 C 620.82 174.95 624.51 171.70 629.00 171.84 C 635.02 171.63 641.07 172.52 647.07 171.55 C 647.99 169.44 648.36 166.80 650.41 165.42 Z" />
</g>
<g id="#ddd2f4ff">
<path fill="#ddd2f4" opacity="1.00" d=" M 767.50 188.47 C 773.63 188.76 779.94 187.91 785.95 189.24 C 796.46 189.52 806.98 189.60 817.50 189.59 L 817.50 190.46 C 829.63 190.38 841.76 190.67 853.88 190.90 C 854.77 191.17 855.68 191.44 856.59 191.70 C 856.59 194.88 856.57 198.07 856.51 201.25 C 856.85 201.48 857.52 201.92 857.86 202.14 C 859.70 203.22 859.38 205.28 859.35 207.13 C 858.38 207.64 857.43 208.15 856.48 208.66 C 854.68 220.00 856.51 231.61 854.76 242.96 C 854.47 250.09 854.79 257.23 854.39 264.36 L 853.31 264.46 L 853.51 265.73 C 852.76 265.65 851.27 265.50 850.53 265.43 L 850.44 266.43 C 844.14 266.31 837.83 266.74 831.53 266.57 L 831.46 267.37 C 826.92 267.32 822.38 267.55 817.84 267.57 C 812.05 272.97 806.28 278.44 801.10 284.43 C 800.58 284.53 799.54 284.72 799.02 284.82 C 799.34 282.15 799.98 279.55 800.90 277.03 C 801.27 275.70 801.57 274.34 801.95 273.01 C 802.51 271.20 802.71 269.31 802.79 267.42 C 793.35 267.51 783.91 267.71 774.47 267.57 L 774.53 268.41 C 771.84 268.33 769.16 268.34 766.48 268.38 C 766.06 246.61 766.47 224.83 766.53 203.06 C 766.36 198.16 767.67 193.37 767.50 188.47 Z" />
</g>
<g id="#f6ada6ff">
<path fill="#f6ada6" opacity="1.00" d=" M 695.18 207.39 C 695.75 217.16 697.56 226.83 700.08 236.27 C 702.44 243.87 705.88 251.30 711.27 257.25 C 716.21 257.27 719.99 260.78 722.99 264.32 C 724.86 271.56 723.05 280.08 716.98 284.84 C 714.22 287.31 710.34 286.52 706.98 286.44 C 704.93 290.31 704.75 294.79 703.53 298.93 C 701.49 306.25 699.97 313.71 697.64 320.95 C 695.93 326.87 695.63 333.10 693.64 338.95 C 690.61 348.27 681.80 355.37 672.05 356.32 C 665.61 356.80 658.77 355.36 653.72 351.17 C 645.87 345.43 642.29 334.72 644.17 325.33 C 646.20 320.64 646.63 315.49 648.42 310.73 C 656.23 314.91 665.30 317.98 674.20 315.75 C 677.88 314.68 682.72 314.20 684.48 310.24 C 679.98 311.00 675.66 312.63 671.10 313.00 C 665.43 313.49 659.65 312.52 654.40 310.36 C 650.53 308.80 647.41 305.91 643.60 304.25 C 635.74 297.19 631.56 287.11 629.63 276.91 C 628.88 265.29 629.04 253.64 629.42 242.00 C 629.48 235.11 631.92 228.49 631.71 221.57 C 633.85 221.57 636.01 221.70 638.15 221.36 C 644.06 218.69 649.02 214.35 653.83 210.06 C 657.26 210.38 660.56 211.40 663.91 212.18 C 673.72 213.42 684.22 212.82 692.88 207.56 C 693.46 207.52 694.61 207.44 695.18 207.39 M 642.22 224.03 C 645.22 226.02 649.55 227.01 652.82 225.09 C 649.69 223.03 645.59 221.40 642.22 224.03 M 679.34 231.74 C 679.70 232.47 679.57 233.71 680.58 233.96 C 683.13 235.07 685.83 235.74 688.47 236.62 C 688.41 235.67 688.36 234.72 688.32 233.77 C 685.90 231.31 682.53 231.33 679.34 231.74 M 657.03 248.67 C 656.51 255.59 654.88 262.46 655.24 269.44 C 655.18 271.64 657.07 273.01 658.42 274.47 C 658.94 274.43 659.99 274.34 660.51 274.29 C 660.48 272.31 659.50 270.62 658.31 269.12 C 658.57 262.35 660.35 255.75 660.64 248.99 C 660.99 243.63 662.33 238.27 661.31 232.90 C 657.65 237.32 658.40 243.41 657.03 248.67 M 646.52 238.54 C 646.10 240.74 646.13 243.09 647.40 245.01 C 648.17 243.24 648.91 241.45 649.68 239.68 C 648.78 238.76 647.86 237.56 646.52 238.54 M 680.60 246.11 C 680.53 248.16 680.90 250.19 682.01 251.94 C 684.27 249.60 685.03 246.35 683.14 243.53 C 682.29 244.39 681.44 245.26 680.60 246.11 M 713.72 273.74 C 713.67 274.52 713.61 275.29 713.57 276.07 C 712.84 276.86 712.33 277.77 712.04 278.80 C 713.79 278.50 715.28 277.53 716.65 276.44 C 716.61 275.55 716.52 273.77 716.47 272.88 C 715.23 271.41 714.26 269.72 714.08 267.76 C 712.34 269.22 709.59 273.77 713.72 273.74 M 670.42 277.59 L 671.09 278.47 C 667.84 283.56 661.05 283.78 656.22 280.99 C 655.64 284.47 659.40 285.38 661.99 286.10 C 666.00 286.83 669.70 284.24 672.53 281.67 C 674.30 279.83 675.63 276.73 673.07 274.90 C 672.17 275.79 671.29 276.69 670.42 277.59 Z" />
<path fill="#f6ada6" opacity="1.00" d=" M 502.90 270.04 C 506.38 265.19 504.16 258.55 507.96 253.89 C 508.52 256.40 509.09 258.92 509.55 261.46 C 509.79 272.10 508.45 282.77 505.78 293.07 C 503.64 297.42 502.80 302.26 500.60 306.59 C 499.15 309.88 496.95 312.81 495.68 316.18 C 494.91 320.41 495.38 324.74 495.28 329.01 C 495.21 343.69 495.32 358.36 495.09 373.03 C 495.02 375.54 495.37 378.03 495.86 380.48 C 498.54 379.43 501.25 378.44 504.06 377.77 C 504.84 377.71 506.40 377.58 507.18 377.52 C 509.27 384.55 511.51 391.57 514.78 398.16 C 519.61 408.65 522.56 419.90 527.17 430.48 C 521.48 431.70 515.66 431.83 509.88 431.67 C 509.02 428.72 509.41 425.04 506.97 422.82 C 493.89 422.17 480.75 422.78 467.66 422.39 C 466.86 421.68 466.07 420.99 465.29 420.29 C 461.27 416.96 458.36 412.52 456.38 407.73 C 451.79 396.82 452.04 384.67 452.62 373.06 C 454.82 351.38 461.02 330.27 468.92 310.03 C 470.17 305.33 470.96 300.52 472.54 295.91 C 474.84 288.69 476.54 280.56 482.48 275.33 C 488.90 276.13 495.34 276.67 501.81 276.63 C 502.30 274.46 502.61 272.25 502.90 270.04 Z" />
</g>
<g id="#7a4049ff">
<path fill="#7a4049" opacity="1.00" d=" M 642.22 224.03 C 645.59 221.40 649.69 223.03 652.82 225.09 C 649.55 227.01 645.22 226.02 642.22 224.03 Z" />
<path fill="#7a4049" opacity="1.00" d=" M 646.52 238.54 C 647.86 237.56 648.78 238.76 649.68 239.68 C 648.91 241.45 648.17 243.24 647.40 245.01 C 646.13 243.09 646.10 240.74 646.52 238.54 Z" />
</g>
<g id="#915464ff">
<path fill="#915464" opacity="1.00" d=" M 679.34 231.74 C 682.53 231.33 685.90 231.31 688.32 233.77 C 688.36 234.72 688.41 235.67 688.47 236.62 C 685.83 235.74 683.13 235.07 680.58 233.96 C 679.57 233.71 679.70 232.47 679.34 231.74 Z" />
</g>
<g id="#a0696dff">
<path fill="#a0696d" opacity="1.00" d=" M 657.03 248.67 C 658.40 243.41 657.65 237.32 661.31 232.90 C 662.33 238.27 660.99 243.63 660.64 248.99 C 660.35 255.75 658.57 262.35 658.31 269.12 C 659.50 270.62 660.48 272.31 660.51 274.29 C 659.99 274.34 658.94 274.43 658.42 274.47 C 657.07 273.01 655.18 271.64 655.24 269.44 C 654.88 262.46 656.51 255.59 657.03 248.67 M 656.75 259.05 C 656.76 260.84 656.11 262.96 657.55 264.40 C 658.67 256.62 660.73 248.70 659.61 240.82 C 657.98 246.77 657.39 252.94 656.75 259.05 Z" />
</g>
<g id="#7a4859ff">
<path fill="#7a4859" opacity="1.00" d=" M 656.75 259.05 C 657.39 252.94 657.98 246.77 659.61 240.82 C 660.73 248.70 658.67 256.62 657.55 264.40 C 656.11 262.96 656.76 260.84 656.75 259.05 Z" />
</g>
<g id="#9d5a5eff">
<path fill="#9d5a5e" opacity="1.00" d=" M 680.60 246.11 C 681.44 245.26 682.29 244.39 683.14 243.53 C 685.03 246.35 684.27 249.60 682.01 251.94 C 680.90 250.19 680.53 248.16 680.60 246.11 Z" />
</g>
<g id="#ab859dff">
<path fill="#ab859d" opacity="1.00" d=" M 502.90 270.04 C 503.71 263.14 503.00 254.93 508.16 249.53 C 509.72 253.32 509.80 257.43 509.55 261.46 C 509.09 258.92 508.52 256.40 507.96 253.89 C 504.16 258.55 506.38 265.19 502.90 270.04 Z" />
</g>
<g id="#512f4fff">
<path fill="#512f4f" opacity="1.00" d=" M 713.72 273.74 C 709.59 273.77 712.34 269.22 714.08 267.76 C 714.26 269.72 715.23 271.41 716.47 272.88 C 716.52 273.77 716.61 275.55 716.65 276.44 C 715.28 277.53 713.79 278.50 712.04 278.80 C 712.33 277.77 712.84 276.86 713.57 276.07 C 713.61 275.29 713.67 274.52 713.72 273.74 Z" />
<path fill="#512f4f" opacity="1.00" d=" M 584.15 403.70 C 587.01 397.54 587.69 390.65 590.50 384.47 C 590.86 390.93 588.04 396.97 587.79 403.38 L 587.74 403.59 C 584.85 411.98 583.58 420.78 581.81 429.44 C 581.14 429.07 579.79 428.32 579.11 427.95 C 579.92 419.72 582.17 411.71 584.15 403.70 Z" />
</g>
<g id="#8fa5f5ff">
<path fill="#8fa5f5" opacity="1.00" d=" M 571.29 270.43 C 575.94 268.61 581.43 269.00 585.94 271.13 C 590.49 273.35 593.63 277.56 596.32 281.71 C 597.88 286.83 598.77 292.91 595.62 297.63 C 592.63 302.64 587.01 306.30 581.02 305.67 C 574.27 306.33 568.00 301.81 565.17 295.90 C 562.71 288.91 565.07 280.03 571.62 276.13 C 571.51 274.22 571.41 272.33 571.29 270.43 M 573.65 276.26 C 573.03 279.89 569.12 282.15 569.44 286.04 C 568.82 290.70 571.62 294.93 574.97 297.87 C 577.52 299.96 581.05 299.86 584.14 299.39 C 587.72 298.44 589.76 295.08 591.46 292.05 C 592.64 286.16 589.77 279.92 584.07 277.68 C 583.54 277.56 582.48 277.32 581.95 277.21 C 579.28 276.26 576.43 276.31 573.65 276.26 Z" />
</g>
<g id="#c88788ff">
<path fill="#c88788" opacity="1.00" d=" M 670.42 277.59 C 671.29 276.69 672.17 275.79 673.07 274.90 C 675.63 276.73 674.30 279.83 672.53 281.67 C 672.30 280.49 671.87 279.39 671.09 278.47 L 670.42 277.59 Z" />
</g>
<g id="#171562ff">
<path fill="#171562" opacity="1.00" d=" M 573.65 276.26 C 576.43 276.31 579.28 276.26 581.95 277.21 C 582.48 277.32 583.54 277.56 584.07 277.68 C 589.77 279.92 592.64 286.16 591.46 292.05 C 589.76 295.08 587.72 298.44 584.14 299.39 C 581.05 299.86 577.52 299.96 574.97 297.87 C 571.62 294.93 568.82 290.70 569.44 286.04 C 569.12 282.15 573.03 279.89 573.65 276.26 Z" />
</g>
<g id="#7e4757ff">
<path fill="#7e4757" opacity="1.00" d=" M 671.09 278.47 C 671.87 279.39 672.30 280.49 672.53 281.67 C 669.70 284.24 666.00 286.83 661.99 286.10 C 659.40 285.38 655.64 284.47 656.22 280.99 C 661.05 283.78 667.84 283.56 671.09 278.47 Z" />
</g>
<g id="#835a7bff">
<path fill="#835a7b" opacity="1.00" d=" M 500.60 306.59 C 502.80 302.26 503.64 297.42 505.78 293.07 C 505.97 299.03 502.62 304.17 500.93 309.69 C 498.93 313.24 496.15 316.74 496.41 321.07 C 496.45 340.12 496.24 359.18 496.25 378.24 C 499.21 377.58 502.16 376.82 504.95 375.59 C 505.00 374.25 504.97 372.90 504.99 371.57 C 507.39 370.37 509.86 369.18 512.54 368.77 C 513.21 368.88 514.56 369.09 515.23 369.20 C 512.66 370.14 510.10 371.08 507.59 372.13 C 506.90 374.29 506.51 376.92 504.06 377.77 C 501.25 378.44 498.54 379.43 495.86 380.48 C 495.37 378.03 495.02 375.54 495.09 373.03 C 495.32 358.36 495.21 343.69 495.28 329.01 C 495.38 324.74 494.91 320.41 495.68 316.18 C 496.95 312.81 499.15 309.88 500.60 306.59 Z" />
</g>
<g id="#7a5264ff">
<path fill="#7a5264" opacity="1.00" d=" M 643.60 304.25 C 647.41 305.91 650.53 308.80 654.40 310.36 C 659.65 312.52 665.43 313.49 671.10 313.00 C 675.66 312.63 679.98 311.00 684.48 310.24 C 682.72 314.20 677.88 314.68 674.20 315.75 C 665.30 317.98 656.23 314.91 648.42 310.73 C 647.11 308.36 645.49 306.18 643.60 304.25 Z" />
</g>
<g id="#d47288ff">
<path fill="#d47288" opacity="1.00" d=" M 744.51 305.73 C 746.24 303.44 749.64 304.50 752.09 304.70 C 760.79 307.19 767.57 313.50 774.69 318.76 C 774.60 320.18 774.52 321.61 774.45 323.04 C 768.24 326.90 762.11 330.88 755.84 334.63 C 754.02 335.89 751.74 335.57 749.66 335.74 C 747.94 329.50 746.80 323.12 745.16 316.87 C 744.19 313.25 744.03 309.43 744.51 305.73 M 748.18 311.19 C 749.23 316.22 751.24 320.97 752.34 325.99 C 752.54 327.26 753.18 329.43 755.05 328.40 C 758.98 326.12 762.82 323.66 766.68 321.26 C 766.59 320.71 766.40 319.62 766.31 319.07 C 760.62 315.76 754.84 312.10 748.18 311.19 Z" />
</g>
<g id="#d7d5e8ff">
<path fill="#d7d5e8" opacity="1.00" d=" M 814.53 305.48 C 816.68 304.52 819.04 304.40 821.38 304.42 L 821.57 305.15 C 825.13 307.26 823.94 312.72 822.29 315.79 C 821.86 315.65 820.99 315.36 820.56 315.22 L 820.54 316.49 C 819.52 316.49 817.48 316.50 816.46 316.51 L 816.46 315.24 C 816.07 315.34 815.28 315.52 814.89 315.62 C 814.52 314.99 813.78 313.74 813.41 313.12 C 813.20 310.52 813.01 307.76 814.53 305.48 Z" />
</g>
<g id="#290e3dff">
<path fill="#290e3d" opacity="1.00" d=" M 496.41 321.07 C 496.15 316.74 498.93 313.24 500.93 309.69 C 499.74 314.10 497.53 318.34 497.63 323.02 C 497.66 337.33 497.63 351.64 497.61 365.96 C 497.61 368.79 497.96 371.62 498.38 374.43 C 499.06 374.64 500.43 375.05 501.11 375.26 C 502.23 374.25 503.36 373.24 504.49 372.23 C 504.63 373.35 504.79 374.47 504.95 375.59 C 502.16 376.82 499.21 377.58 496.25 378.24 C 496.24 359.18 496.45 340.12 496.41 321.07 Z" />
</g>
<g id="#1e1359ff">
<path fill="#1e1359" opacity="1.00" d=" M 748.18 311.19 C 754.84 312.10 760.62 315.76 766.31 319.07 C 766.40 319.62 766.59 320.71 766.68 321.26 C 762.82 323.66 758.98 326.12 755.05 328.40 C 753.18 329.43 752.54 327.26 752.34 325.99 C 751.24 320.97 749.23 316.22 748.18 311.19 Z" />
</g>
<g id="#e3707fff">
<path fill="#e3707f" opacity="1.00" d=" M 693.64 338.95 C 695.63 333.10 695.93 326.87 697.64 320.95 C 697.74 322.42 697.11 324.95 699.20 325.23 C 703.64 326.14 708.01 327.39 712.13 329.31 C 716.54 332.21 721.40 334.36 725.74 337.37 C 738.93 346.18 749.71 358.67 756.11 373.22 C 760.20 382.90 765.34 392.08 769.61 401.68 C 769.97 405.31 771.17 408.81 771.53 412.43 C 770.46 415.45 766.50 415.99 764.80 418.54 C 763.46 420.95 762.85 423.83 760.86 425.85 C 758.69 428.01 755.64 428.79 752.88 429.89 C 751.88 431.86 751.05 433.97 749.63 435.70 C 747.69 437.80 745.07 439.12 743.12 441.21 C 741.87 443.65 742.06 446.95 739.65 448.71 C 736.73 450.24 733.50 451.11 730.45 452.34 C 728.68 452.86 726.91 453.37 725.20 454.04 C 723.57 455.88 722.10 457.85 720.80 459.93 C 715.95 461.90 716.14 467.85 714.42 472.02 C 714.16 468.93 713.86 465.85 713.53 462.78 C 712.96 467.05 712.30 471.31 711.29 475.50 C 709.06 473.90 706.46 472.96 703.70 473.21 C 701.87 478.87 695.81 482.38 690.02 482.06 C 686.13 481.65 683.20 484.45 679.82 485.79 C 677.03 486.91 674.37 488.31 671.75 489.76 C 668.62 491.53 664.88 490.91 661.46 491.22 C 658.57 494.74 653.55 493.66 650.04 496.14 C 645.15 494.37 640.03 496.23 635.02 496.05 C 626.68 495.86 618.29 496.35 609.99 495.31 C 602.93 494.38 595.71 495.94 588.76 494.14 C 583.34 492.81 577.76 492.48 572.23 491.99 C 570.93 490.46 569.63 488.92 568.33 487.39 C 570.38 479.66 572.16 471.84 573.43 463.95 C 573.83 459.60 577.76 456.80 578.66 452.62 C 580.65 445.02 581.52 437.18 583.44 429.57 C 584.91 423.76 585.72 417.82 587.09 412.00 C 587.78 409.25 587.76 406.40 587.74 403.59 L 587.79 403.38 C 590.64 397.88 591.36 391.64 592.59 385.66 C 593.16 383.68 592.19 381.91 591.14 380.32 C 587.95 385.09 586.88 390.78 584.98 396.10 C 584.02 398.52 584.07 401.14 584.15 403.70 C 582.17 411.71 579.92 419.72 579.11 427.95 C 576.58 429.01 574.06 430.08 571.58 431.25 C 560.13 433.50 548.91 436.99 537.54 439.61 C 535.32 439.53 533.12 439.42 530.92 439.34 C 529.87 436.30 528.60 433.35 527.17 430.48 C 522.56 419.90 519.61 408.65 514.78 398.16 C 511.51 391.57 509.27 384.55 507.18 377.52 C 506.40 377.58 504.84 377.71 504.06 377.77 C 506.51 376.92 506.90 374.29 507.59 372.13 C 510.10 371.08 512.66 370.14 515.23 369.20 C 514.56 369.09 513.21 368.88 512.54 368.77 C 518.75 367.52 524.57 364.92 530.49 362.74 C 555.53 353.53 580.13 343.15 605.36 334.45 C 618.04 330.53 630.63 325.06 644.17 325.33 C 642.29 334.72 645.87 345.43 653.72 351.17 C 658.77 355.36 665.61 356.80 672.05 356.32 C 681.80 355.37 690.61 348.27 693.64 338.95 M 712.04 353.00 C 709.74 354.71 707.48 356.52 705.51 358.62 C 704.24 357.27 703.09 355.78 701.60 354.69 C 699.41 353.60 696.97 354.25 694.73 354.67 C 693.98 356.62 692.88 358.92 694.07 360.94 C 696.30 363.44 700.13 362.67 703.10 363.33 C 698.49 377.35 700.31 392.52 703.79 406.58 C 703.94 406.59 704.25 406.60 704.41 406.61 C 706.16 415.70 709.52 424.39 712.67 433.07 C 714.71 438.04 716.57 443.15 719.30 447.79 C 719.87 448.11 721.02 448.75 721.59 449.07 C 721.55 447.39 721.77 445.60 720.97 444.05 C 717.67 437.13 714.57 430.10 712.11 422.84 C 710.60 417.43 707.80 412.40 707.21 406.74 C 704.01 395.45 703.51 383.63 704.47 371.99 C 705.85 363.71 711.69 355.90 719.87 353.37 C 722.88 352.34 726.12 352.15 729.12 351.04 C 729.31 350.23 729.49 349.41 729.64 348.59 C 723.56 348.53 717.06 349.29 712.04 353.00 M 658.66 424.60 C 658.55 425.57 658.46 426.54 658.37 427.52 C 670.98 427.40 683.49 429.00 696.04 429.85 C 698.86 430.26 702.45 431.43 704.04 428.18 C 699.44 425.72 694.03 425.85 688.97 425.29 C 678.92 424.02 668.76 424.35 658.66 424.60 Z" />
</g>
<g id="#da938bff">
<path fill="#da938b" opacity="1.00" d=" M 400.52 328.44 C 402.42 328.42 404.33 328.43 406.24 328.48 C 409.29 339.86 412.00 351.36 413.26 363.11 C 414.33 365.68 410.36 366.41 409.12 364.95 C 407.85 361.71 407.11 358.27 405.81 355.04 C 405.49 354.03 405.18 353.04 404.86 352.05 C 402.94 344.29 400.08 336.54 400.52 328.44 Z" />
</g>
<g id="#653666ff">
<path fill="#653666" opacity="1.00" d=" M 712.13 329.31 C 713.93 329.60 715.86 329.62 717.54 330.47 C 731.79 337.68 744.02 348.87 752.39 362.48 C 756.37 369.14 759.00 376.49 762.60 383.36 C 766.61 390.98 770.02 398.89 774.12 406.45 C 777.94 414.39 782.27 422.06 785.87 430.10 C 787.26 433.39 789.22 436.39 791.68 438.98 L 791.36 439.36 C 790.70 439.42 789.36 439.52 788.69 439.58 C 782.28 426.97 776.35 414.12 769.61 401.68 C 765.34 392.08 760.20 382.90 756.11 373.22 C 749.71 358.67 738.93 346.18 725.74 337.37 C 721.40 334.36 716.54 332.21 712.13 329.31 Z" />
</g>
<g id="#e3c393ff">
<path fill="#e3c393" opacity="1.00" d=" M 791.94 349.02 C 799.60 343.93 807.71 339.58 815.95 335.49 C 817.56 335.49 819.17 335.77 820.54 336.73 C 820.53 337.62 820.52 339.42 820.52 340.32 C 818.75 341.67 816.85 342.83 814.87 343.82 C 811.33 346.03 807.55 347.81 803.88 349.79 C 800.61 351.20 797.40 352.77 794.15 354.23 C 791.64 355.22 789.15 356.32 786.48 356.72 C 786.46 355.75 786.42 353.80 786.40 352.82 C 788.20 351.49 790.04 350.22 791.94 349.02 Z" />
</g>
<g id="#914862ff">
<path fill="#914862" opacity="1.00" d=" M 712.04 353.00 C 717.06 349.29 723.56 348.53 729.64 348.59 C 729.49 349.41 729.31 350.23 729.12 351.04 C 726.12 352.15 722.88 352.34 719.87 353.37 C 711.69 355.90 705.85 363.71 704.47 371.99 C 703.51 383.63 704.01 395.45 707.21 406.74 C 706.27 406.69 705.33 406.65 704.41 406.61 C 704.25 406.60 703.94 406.59 703.79 406.58 C 700.31 392.52 698.49 377.35 703.10 363.33 C 703.74 361.68 704.55 360.10 705.51 358.62 C 707.48 356.52 709.74 354.71 712.04 353.00 Z" />
</g>
<g id="#e4a7b2ff">
<path fill="#e4a7b2" opacity="1.00" d=" M 694.73 354.67 C 696.97 354.25 699.41 353.60 701.60 354.69 C 703.09 355.78 704.24 357.27 705.51 358.62 C 704.55 360.10 703.74 361.68 703.10 363.33 C 700.13 362.67 696.30 363.44 694.07 360.94 C 692.88 358.92 693.98 356.62 694.73 354.67 M 695.43 358.12 C 696.20 359.36 696.99 360.59 697.78 361.84 C 699.17 360.95 700.58 360.07 701.98 359.19 C 701.47 357.12 700.02 355.82 698.01 355.31 C 697.14 356.24 696.28 357.18 695.43 358.12 Z" />
</g>
<g id="#24206aff">
<path fill="#24206a" opacity="1.00" d=" M 864.13 355.15 C 872.41 354.75 880.69 353.68 889.00 353.92 L 889.00 402.76 L 888.35 401.53 C 879.57 402.67 870.66 401.67 861.92 403.09 C 859.92 403.39 857.94 403.67 855.98 404.11 C 853.60 404.57 851.24 405.09 848.90 405.67 C 847.24 406.20 845.59 406.72 843.96 407.27 C 843.46 407.36 842.46 407.55 841.96 407.65 C 835.85 409.84 829.83 412.27 824.05 415.22 C 812.91 420.96 803.04 428.80 793.48 436.82 C 793.03 437.36 792.13 438.44 791.68 438.98 C 789.22 436.39 787.26 433.39 785.87 430.10 C 782.27 422.06 777.94 414.39 774.12 406.45 C 776.26 404.75 778.51 403.19 780.84 401.76 C 784.71 399.69 785.84 394.91 789.43 392.51 C 792.72 390.20 795.75 387.56 798.55 384.66 C 802.77 380.33 808.22 377.58 813.00 373.95 C 816.20 371.48 820.33 370.86 823.71 368.73 C 828.65 365.23 834.66 363.92 839.90 360.98 C 847.76 358.30 856.02 356.89 864.13 355.15 Z" />
<path fill="#24206a" opacity="1.00" d=" M 353.02 411.76 C 357.45 411.67 361.59 409.40 366.07 409.90 C 372.30 410.40 378.44 411.71 384.63 412.60 C 388.28 413.99 392.02 415.15 395.99 415.11 C 399.96 415.08 403.41 417.16 407.05 418.44 C 414.94 420.11 423.08 419.96 431.10 420.50 C 426.59 420.59 422.09 420.90 417.63 421.51 C 405.13 421.74 392.62 421.35 380.13 421.55 C 380.21 424.73 380.97 427.83 382.21 430.77 C 383.22 436.05 385.61 440.91 386.90 446.12 C 388.02 450.58 389.28 455.02 390.99 459.31 C 388.92 459.38 386.84 459.47 384.78 459.55 C 382.86 459.49 380.94 459.35 379.04 459.20 C 367.95 457.43 356.56 458.20 345.47 459.60 L 345.49 460.45 C 343.83 460.47 342.17 460.49 340.52 460.53 L 340.47 461.49 C 339.86 461.51 338.63 461.55 338.01 461.57 C 334.71 462.81 331.35 463.88 328.07 465.17 C 310.80 472.07 295.81 483.70 282.93 496.95 C 261.12 518.24 243.67 543.52 222.07 565.01 C 205.88 581.99 186.13 595.58 164.59 604.83 L 164.42 605.20 C 162.61 605.79 160.82 606.48 159.07 607.24 C 152.17 609.95 145.16 612.39 138.00 614.33 C 137.52 614.44 136.56 614.65 136.08 614.76 C 125.32 618.15 114.05 619.39 102.95 621.17 C 93.31 621.78 83.63 621.70 73.97 621.65 C 68.96 621.49 63.90 621.79 58.94 620.88 C 54.27 620.53 49.67 619.60 45.00 619.18 C 39.73 617.87 34.32 617.19 29.05 615.83 C 19.23 613.03 9.38 610.24 0.00 606.14 L 0.00 558.11 C 4.60 560.19 9.62 561.02 14.35 562.72 C 24.68 566.66 35.63 568.53 46.27 571.40 C 63.05 573.53 80.06 574.78 96.95 573.23 C 106.81 573.30 116.27 570.20 126.03 569.31 C 131.28 568.90 135.84 565.97 141.00 565.13 C 150.39 563.19 159.03 558.91 167.64 554.86 C 176.93 551.78 184.61 545.57 193.10 540.94 C 202.50 535.36 209.95 527.22 218.44 520.45 C 220.67 518.66 222.57 516.52 224.35 514.29 C 230.12 507.09 237.54 501.33 242.81 493.71 C 246.09 489.05 250.94 485.79 254.12 481.04 C 258.42 474.77 263.97 469.51 268.48 463.40 C 271.84 458.83 276.37 455.33 280.30 451.28 C 283.30 448.29 285.99 444.99 289.21 442.22 C 293.89 438.14 299.28 435.00 304.04 431.01 C 307.91 427.61 313.16 426.45 317.09 423.12 C 320.21 420.28 324.60 420.07 328.20 418.16 C 335.75 413.97 344.40 411.93 353.02 411.76 Z" />
</g>
<g id="#d9dae2ff">
<path fill="#d9dae2" opacity="1.00" d=" M 695.43 358.12 C 696.28 357.18 697.14 356.24 698.01 355.31 C 700.02 355.82 701.47 357.12 701.98 359.19 C 700.58 360.07 699.17 360.95 697.78 361.84 C 696.99 360.59 696.20 359.36 695.43 358.12 Z" />
</g>
<g id="#ac5f78ff">
<path fill="#ac5f78" opacity="1.00" d=" M 584.98 396.10 C 586.88 390.78 587.95 385.09 591.14 380.32 C 592.19 381.91 593.16 383.68 592.59 385.66 C 591.36 391.64 590.64 397.88 587.79 403.38 C 588.04 396.97 590.86 390.93 590.50 384.47 C 587.69 390.65 587.01 397.54 584.15 403.70 C 584.07 401.14 584.02 398.52 584.98 396.10 Z" />
</g>
<g id="#e57786ff">
<path fill="#e57786" opacity="1.00" d=" M 769.61 401.68 C 776.35 414.12 782.28 426.97 788.69 439.58 C 789.36 439.52 790.70 439.42 791.36 439.36 L 791.26 439.48 C 787.98 441.09 785.43 443.68 782.69 445.99 C 768.65 448.79 754.15 449.10 740.01 451.55 C 736.85 452.09 733.64 452.23 730.45 452.34 C 733.50 451.11 736.73 450.24 739.65 448.71 C 742.06 446.95 741.87 443.65 743.12 441.21 C 745.07 439.12 747.69 437.80 749.63 435.70 C 751.05 433.97 751.88 431.86 752.88 429.89 C 755.64 428.79 758.69 428.01 760.86 425.85 C 762.85 423.83 763.46 420.95 764.80 418.54 C 766.50 415.99 770.46 415.45 771.53 412.43 C 771.17 408.81 769.97 405.31 769.61 401.68 Z" />
<path fill="#e57786" opacity="1.00" d=" M 714.42 472.02 C 716.14 467.85 715.95 461.90 720.80 459.93 C 718.74 465.48 717.50 471.29 716.66 477.14 C 715.84 482.97 714.47 488.76 714.49 494.68 C 691.26 497.79 668.17 501.81 645.05 505.68 C 627.69 508.96 610.37 512.51 593.00 515.75 C 582.08 516.92 571.18 518.54 560.44 520.88 C 562.58 511.03 565.02 501.25 566.95 491.36 C 567.39 490.03 567.88 488.71 568.33 487.39 C 569.63 488.92 570.93 490.46 572.23 491.99 C 577.76 492.48 583.34 492.81 588.76 494.14 C 595.71 495.94 602.93 494.38 609.99 495.31 C 618.29 496.35 626.68 495.86 635.02 496.05 C 640.03 496.23 645.15 494.37 650.04 496.14 C 653.55 493.66 658.57 494.74 661.46 491.22 C 664.88 490.91 668.62 491.53 671.75 489.76 C 674.37 488.31 677.03 486.91 679.82 485.79 C 683.20 484.45 686.13 481.65 690.02 482.06 C 695.81 482.38 701.87 478.87 703.70 473.21 C 706.46 472.96 709.06 473.90 711.29 475.50 C 712.30 471.31 712.96 467.05 713.53 462.78 C 713.86 465.85 714.16 468.93 714.42 472.02 Z" />
</g>
<g id="#fcfcfbff">
<path fill="#fcfcfb" opacity="1.00" d=" M 855.98 404.11 C 857.94 403.67 859.92 403.39 861.92 403.09 C 870.66 401.67 879.57 402.67 888.35 401.53 L 889.00 402.76 L 889.00 417.21 C 885.67 417.30 882.35 417.44 879.04 417.78 C 877.06 418.25 875.06 418.51 873.06 418.78 C 871.05 419.33 868.99 419.68 866.96 420.11 C 860.57 421.88 854.04 423.29 847.89 425.85 C 846.77 426.16 845.66 426.46 844.56 426.76 L 844.46 427.27 C 841.84 428.07 839.30 429.10 836.94 430.47 C 836.61 430.44 835.94 430.37 835.60 430.34 L 835.40 431.16 C 833.90 431.80 832.42 432.47 830.95 433.15 C 814.48 441.58 798.75 452.62 787.92 467.87 C 782.98 474.82 779.00 482.62 777.42 491.06 C 776.63 488.99 775.12 487.39 773.52 485.94 C 773.11 487.73 772.70 489.52 772.27 491.32 C 770.57 487.16 771.83 482.13 774.64 478.75 C 775.95 477.09 777.23 475.41 778.47 473.70 C 779.35 473.95 780.23 474.20 781.13 474.46 C 780.29 473.40 779.47 472.34 778.66 471.28 C 780.09 468.06 778.91 464.65 777.91 461.52 C 775.71 465.42 775.88 470.12 773.85 474.11 C 773.30 472.78 772.79 471.48 772.27 470.17 C 770.80 471.12 769.33 472.07 767.87 473.03 C 767.57 472.22 767.27 471.41 766.98 470.61 C 765.83 470.52 764.68 470.41 763.55 470.33 C 766.24 467.62 768.51 464.51 769.93 460.95 C 773.76 457.10 777.03 452.68 781.30 449.28 C 784.91 446.33 788.18 442.99 791.26 439.48 L 791.36 439.36 L 791.68 438.98 C 792.13 438.44 793.03 437.36 793.48 436.82 C 803.04 428.80 812.91 420.96 824.05 415.22 C 829.83 412.27 835.85 409.84 841.96 407.65 C 842.46 407.55 843.46 407.36 843.96 407.27 C 845.59 406.72 847.24 406.20 848.90 405.67 C 851.24 405.09 853.60 404.57 855.98 404.11 Z" />
</g>
<g id="#a66281ff">
<path fill="#a66281" opacity="1.00" d=" M 581.81 429.44 C 583.58 420.78 584.85 411.98 587.74 403.59 C 587.76 406.40 587.78 409.25 587.09 412.00 C 585.72 417.82 584.91 423.76 583.44 429.57 C 581.52 437.18 580.65 445.02 578.66 452.62 C 577.76 456.80 573.83 459.60 573.43 463.95 C 572.16 471.84 570.38 479.66 568.33 487.39 C 567.88 488.71 567.39 490.03 566.95 491.36 C 566.85 490.41 566.67 488.50 566.57 487.54 C 568.58 479.30 570.35 470.98 571.67 462.60 C 572.79 458.01 576.89 454.81 577.50 450.04 C 578.77 443.14 580.43 436.32 581.81 429.44 Z" />
</g>
<g id="#6e3753ff">
<path fill="#6e3753" opacity="1.00" d=" M 704.41 406.61 C 705.33 406.65 706.27 406.69 707.21 406.74 C 707.80 412.40 710.60 417.43 712.11 422.84 C 714.57 430.10 717.67 437.13 720.97 444.05 C 721.77 445.60 721.55 447.39 721.59 449.07 C 721.02 448.75 719.87 448.11 719.30 447.79 C 716.57 443.15 714.71 438.04 712.67 433.07 C 709.52 424.39 706.16 415.70 704.41 406.61 Z" />
</g>
<g id="#6239a1ff">
<path fill="#6239a1" opacity="1.00" d=" M 465.29 420.29 C 466.07 420.99 466.86 421.68 467.66 422.39 C 480.75 422.78 493.89 422.17 506.97 422.82 C 509.41 425.04 509.02 428.72 509.88 431.67 C 510.82 432.49 511.80 433.27 512.82 434.03 C 512.40 434.12 511.56 434.30 511.15 434.38 C 515.08 447.09 518.56 459.94 522.70 472.59 C 523.73 475.75 524.51 478.98 525.36 482.20 C 523.35 478.81 522.28 474.32 518.29 472.69 C 510.43 469.03 502.15 466.10 494.95 461.19 C 492.32 459.32 489.20 458.44 486.20 457.40 C 478.64 454.54 472.77 448.62 465.38 445.45 C 459.89 442.89 455.33 438.74 449.83 436.21 C 445.71 434.16 440.95 433.55 437.14 430.87 C 433.70 428.54 430.51 425.58 426.35 424.62 C 420.35 423.27 414.16 423.24 408.04 423.15 C 399.49 423.14 390.95 422.89 382.40 423.18 C 382.48 425.71 382.41 428.24 382.21 430.77 C 380.97 427.83 380.21 424.73 380.13 421.55 C 392.62 421.35 405.13 421.74 417.63 421.51 C 423.78 421.44 429.87 422.54 436.03 422.41 C 445.34 422.31 454.65 422.51 463.96 422.45 C 464.30 421.91 464.96 420.83 465.29 420.29 Z" />
</g>
<g id="#6a42a5ff">
<path fill="#6a42a5" opacity="1.00" d=" M 382.40 423.18 C 390.95 422.89 399.49 423.14 408.04 423.15 C 414.16 423.24 420.35 423.27 426.35 424.62 C 430.51 425.58 433.70 428.54 437.14 430.87 C 440.95 433.55 445.71 434.16 449.83 436.21 C 455.33 438.74 459.89 442.89 465.38 445.45 C 472.77 448.62 478.64 454.54 486.20 457.40 C 489.20 458.44 492.32 459.32 494.95 461.19 C 502.15 466.10 510.43 469.03 518.29 472.69 C 522.28 474.32 523.35 478.81 525.36 482.20 C 529.56 494.17 532.85 506.44 536.42 518.61 C 537.33 521.43 538.01 524.50 540.18 526.67 C 538.80 527.28 537.29 527.44 535.81 527.53 C 515.92 520.39 497.11 510.60 478.73 500.24 C 472.76 496.66 466.38 493.79 460.66 489.80 C 462.94 487.74 465.73 486.18 467.59 483.70 C 469.09 480.37 468.51 476.53 468.53 472.98 C 468.76 468.75 465.08 465.45 461.52 463.91 C 456.37 463.31 449.63 462.19 446.13 467.07 C 442.61 470.79 443.65 476.29 441.65 480.61 C 439.36 479.27 436.97 478.08 434.40 477.42 C 421.49 471.00 408.06 465.42 394.05 461.91 C 390.96 461.11 387.71 460.88 384.78 459.55 C 386.84 459.47 388.92 459.38 390.99 459.31 C 389.28 455.02 388.02 450.58 386.90 446.12 C 385.61 440.91 383.22 436.05 382.21 430.77 C 382.41 428.24 382.48 425.71 382.40 423.18 Z" />
</g>
<g id="#7a4561ff">
<path fill="#7a4561" opacity="1.00" d=" M 658.66 424.60 C 668.76 424.35 678.92 424.02 688.97 425.29 C 694.03 425.85 699.44 425.72 704.04 428.18 C 702.45 431.43 698.86 430.26 696.04 429.85 C 683.49 429.00 670.98 427.40 658.37 427.52 C 658.46 426.54 658.55 425.57 658.66 424.60 Z" />
</g>
<g id="#4a3561ff">
<path fill="#4a3561" opacity="1.00" d=" M 579.11 427.95 C 579.79 428.32 581.14 429.07 581.81 429.44 C 580.43 436.32 578.77 443.14 577.50 450.04 C 576.89 454.81 572.79 458.01 571.67 462.60 C 572.28 451.74 578.51 442.14 578.94 431.21 C 576.48 431.22 574.03 431.20 571.58 431.25 C 574.06 430.08 576.58 429.01 579.11 427.95 Z" />
</g>
<g id="#86587fff">
<path fill="#86587f" opacity="1.00" d=" M 509.88 431.67 C 515.66 431.83 521.48 431.70 527.17 430.48 C 528.60 433.35 529.87 436.30 530.92 439.34 C 533.12 439.42 535.32 439.53 537.54 439.61 C 535.36 441.30 532.64 441.57 529.98 441.50 C 529.08 438.30 527.90 435.20 526.47 432.20 C 521.92 432.84 517.35 433.33 512.82 434.03 C 511.80 433.27 510.82 432.49 509.88 431.67 Z" />
</g>
<g id="#f6b2abff">
<path fill="#f6b2ab" opacity="1.00" d=" M 782.69 445.99 C 785.43 443.68 787.98 441.09 791.26 439.48 C 788.18 442.99 784.91 446.33 781.30 449.28 C 777.03 452.68 773.76 457.10 769.93 460.95 C 767.17 462.77 764.59 464.86 762.46 467.41 C 755.95 474.97 749.10 482.24 742.81 489.99 C 739.37 494.16 734.78 497.13 731.02 500.99 C 723.12 507.91 715.33 515.13 706.20 520.44 C 699.22 525.64 691.02 528.72 683.17 532.33 C 674.60 535.45 665.95 538.55 656.95 540.17 C 652.28 541.04 647.57 541.72 642.99 543.01 C 639.64 542.82 636.29 542.64 632.98 542.17 C 621.04 540.11 608.95 539.15 596.95 537.53 C 584.77 535.83 572.53 534.49 560.35 532.73 C 556.07 531.57 551.11 530.11 547.13 532.92 C 544.24 532.07 541.42 531.02 538.60 529.98 L 539.57 529.24 C 545.17 523.75 553.25 522.92 560.44 520.88 C 571.18 518.54 582.08 516.92 593.00 515.75 C 610.37 512.51 627.69 508.96 645.05 505.68 C 668.17 501.81 691.26 497.79 714.49 494.68 C 718.52 494.19 723.28 494.57 726.43 491.50 C 730.55 485.55 729.93 477.81 728.95 471.01 C 727.94 465.30 727.33 459.47 725.20 454.04 C 726.91 453.37 728.68 452.86 730.45 452.34 C 733.64 452.23 736.85 452.09 740.01 451.55 C 754.15 449.10 768.65 448.79 782.69 445.99 Z" />
</g>
<g id="#96556bff">
<path fill="#96556b" opacity="1.00" d=" M 720.80 459.93 C 722.10 457.85 723.57 455.88 725.20 454.04 C 727.33 459.47 727.94 465.30 728.95 471.01 C 729.93 477.81 730.55 485.55 726.43 491.50 C 723.28 494.57 718.52 494.19 714.49 494.68 C 714.47 488.76 715.84 482.97 716.66 477.14 C 717.50 471.29 718.74 465.48 720.80 459.93 M 723.68 458.42 C 722.18 462.23 719.92 465.82 719.39 469.95 C 718.24 477.52 716.98 485.07 716.18 492.68 C 718.97 492.56 722.17 493.11 724.48 491.14 C 727.61 488.84 728.04 484.59 728.38 481.01 C 728.34 473.33 727.19 465.72 725.33 458.28 C 724.92 458.32 724.10 458.39 723.68 458.42 Z" />
</g>
<g id="#242166ff">
<path fill="#242166" opacity="1.00" d=" M 723.68 458.42 C 724.10 458.39 724.92 458.32 725.33 458.28 C 727.19 465.72 728.34 473.33 728.38 481.01 C 728.04 484.59 727.61 488.84 724.48 491.14 C 722.17 493.11 718.97 492.56 716.18 492.68 C 716.98 485.07 718.24 477.52 719.39 469.95 C 719.92 465.82 722.18 462.23 723.68 458.42 Z" />
</g>
<g id="#ffffffff">
<path fill="#ffffff" opacity="1.00" d=" M 345.47 459.60 C 356.56 458.20 367.95 457.43 379.04 459.20 C 380.94 459.35 382.86 459.49 384.78 459.55 C 387.71 460.88 390.96 461.11 394.05 461.91 C 408.06 465.42 421.49 471.00 434.40 477.42 C 439.20 482.01 445.80 483.81 451.72 486.50 C 455.82 488.04 459.12 491.01 462.95 493.08 C 487.36 506.90 511.85 521.11 538.60 529.98 C 541.42 531.02 544.24 532.07 547.13 532.92 C 551.06 534.20 555.07 535.24 559.14 536.01 L 559.86 536.20 C 578.84 541.12 598.33 544.62 617.99 544.55 C 625.79 544.59 633.65 544.79 641.38 543.45 C 646.26 544.76 651.12 542.79 656.01 542.53 C 665.27 541.77 673.75 537.71 682.64 535.38 C 693.11 531.16 703.08 525.73 712.51 519.52 C 732.08 506.00 747.69 487.83 763.55 470.33 C 764.68 470.41 765.83 470.52 766.98 470.61 C 767.27 471.41 767.57 472.22 767.87 473.03 C 769.33 472.07 770.80 471.12 772.27 470.17 C 772.79 471.48 773.30 472.78 773.85 474.11 C 775.88 470.12 775.71 465.42 777.91 461.52 C 778.91 464.65 780.09 468.06 778.66 471.28 C 779.47 472.34 780.29 473.40 781.13 474.46 C 780.23 474.20 779.35 473.95 778.47 473.70 C 777.23 475.41 775.95 477.09 774.64 478.75 C 771.83 482.13 770.57 487.16 772.27 491.32 C 772.70 489.52 773.11 487.73 773.52 485.94 C 775.12 487.39 776.63 488.99 777.42 491.06 C 775.07 500.64 776.38 511.44 782.74 519.26 C 789.97 528.43 799.78 535.00 809.40 541.40 C 822.16 549.60 835.05 557.67 846.98 567.07 C 864.90 581.15 880.05 599.08 889.00 620.18 L 889.00 641.00 L 375.88 641.00 C 382.09 638.68 388.70 637.80 395.01 635.82 C 423.00 625.61 443.96 599.11 448.37 569.75 C 448.74 565.20 448.79 560.63 449.09 556.08 C 449.60 536.76 442.15 517.74 429.92 502.93 C 426.26 498.72 423.08 493.89 418.24 490.90 C 413.30 487.83 408.96 483.83 403.60 481.46 C 394.62 477.20 385.02 473.62 374.99 473.23 C 367.15 472.50 359.15 471.65 351.41 473.54 C 327.80 476.21 306.85 491.21 293.90 510.74 C 289.05 519.44 284.89 528.65 282.68 538.40 C 280.74 546.44 281.42 554.78 281.26 562.97 C 281.09 575.03 285.31 586.66 291.07 597.09 C 294.81 605.39 300.82 612.41 307.43 618.56 C 312.01 622.27 316.07 626.73 321.39 629.43 C 327.23 632.53 333.26 635.36 339.65 637.14 C 343.38 638.14 347.04 639.37 350.55 641.00 L 0.00 641.00 L 0.00 606.14 C 9.38 610.24 19.23 613.03 29.05 615.83 C 34.32 617.19 39.73 617.87 45.00 619.18 C 49.67 619.60 54.27 620.53 58.94 620.88 C 63.90 621.79 68.96 621.49 73.97 621.65 C 83.63 621.70 93.31 621.78 102.95 621.17 C 114.05 619.39 125.32 618.15 136.08 614.76 C 136.56 614.65 137.52 614.44 138.00 614.33 C 145.16 612.39 152.17 609.95 159.07 607.24 C 160.82 606.48 162.61 605.79 164.42 605.20 L 164.59 604.83 C 186.13 595.58 205.88 581.99 222.07 565.01 C 243.67 543.52 261.12 518.24 282.93 496.95 C 295.81 483.70 310.80 472.07 328.07 465.17 C 331.35 463.88 334.71 462.81 338.01 461.57 C 338.63 461.55 339.86 461.51 340.47 461.49 L 340.52 460.53 C 342.17 460.49 343.83 460.47 345.49 460.45 L 345.47 459.60 Z" />
</g>
<g id="#f6d6d4ff">
<path fill="#f6d6d4" opacity="1.00" d=" M 762.46 467.41 C 764.59 464.86 767.17 462.77 769.93 460.95 C 768.51 464.51 766.24 467.62 763.55 470.33 C 747.69 487.83 732.08 506.00 712.51 519.52 C 703.08 525.73 693.11 531.16 682.64 535.38 C 673.75 537.71 665.27 541.77 656.01 542.53 C 651.12 542.79 646.26 544.76 641.38 543.45 L 642.99 543.01 C 647.57 541.72 652.28 541.04 656.95 540.17 C 665.95 538.55 674.60 535.45 683.17 532.33 C 691.02 528.72 699.22 525.64 706.20 520.44 C 715.33 515.13 723.12 507.91 731.02 500.99 C 734.78 497.13 739.37 494.16 742.81 489.99 C 749.10 482.24 755.95 474.97 762.46 467.41 Z" />
</g>
<g id="#a78fcdff">
<path fill="#a78fcd" opacity="1.00" d=" M 446.13 467.07 C 449.63 462.19 456.37 463.31 461.52 463.91 C 465.08 465.45 468.76 468.75 468.53 472.98 C 468.51 476.53 469.09 480.37 467.59 483.70 C 465.73 486.18 462.94 487.74 460.66 489.80 C 466.38 493.79 472.76 496.66 478.73 500.24 C 497.11 510.60 515.92 520.39 535.81 527.53 C 537.08 528.07 538.31 528.64 539.57 529.24 L 538.60 529.98 C 511.85 521.11 487.36 506.90 462.95 493.08 C 459.12 491.01 455.82 488.04 451.72 486.50 C 451.66 485.98 451.55 484.95 451.49 484.44 C 455.08 484.75 459.25 485.70 462.35 483.30 C 464.99 480.52 466.40 476.12 464.67 472.51 C 462.01 465.92 450.68 465.42 447.97 472.19 C 446.30 476.10 447.84 480.26 449.60 483.83 C 446.89 482.91 444.17 481.98 441.65 480.61 C 443.65 476.29 442.61 470.79 446.13 467.07 Z" />
</g>
<g id="#ccbfe1ff">
<path fill="#ccbfe1" opacity="1.00" d=" M 447.97 472.19 C 450.68 465.42 462.01 465.92 464.67 472.51 C 466.40 476.12 464.99 480.52 462.35 483.30 C 459.25 485.70 455.08 484.75 451.49 484.44 C 451.55 484.95 451.66 485.98 451.72 486.50 C 445.80 483.81 439.20 482.01 434.40 477.42 C 436.97 478.08 439.36 479.27 441.65 480.61 C 444.17 481.98 446.89 482.91 449.60 483.83 C 447.84 480.26 446.30 476.10 447.97 472.19 Z" />
</g>
<g id="#e6e5eeff">
<path fill="#e6e5ee" opacity="1.00" d=" M 351.41 473.54 C 359.15 471.65 367.15 472.50 374.99 473.23 C 385.02 473.62 394.62 477.20 403.60 481.46 C 408.96 483.83 413.30 487.83 418.24 490.90 C 423.08 493.89 426.26 498.72 429.92 502.93 C 442.15 517.74 449.60 536.76 449.09 556.08 C 448.79 560.63 448.74 565.20 448.37 569.75 C 443.96 599.11 423.00 625.61 395.01 635.82 C 388.70 637.80 382.09 638.68 375.88 641.00 L 350.55 641.00 C 347.04 639.37 343.38 638.14 339.65 637.14 C 333.26 635.36 327.23 632.53 321.39 629.43 C 316.07 626.73 312.01 622.27 307.43 618.56 C 300.82 612.41 294.81 605.39 291.07 597.09 C 285.31 586.66 281.09 575.03 281.26 562.97 C 281.42 554.78 280.74 546.44 282.68 538.40 C 284.89 528.65 289.05 519.44 293.90 510.74 C 306.85 491.21 327.80 476.21 351.41 473.54 M 348.33 491.42 L 348.62 492.27 C 346.73 492.41 344.75 492.33 343.07 493.32 C 340.95 494.26 338.77 495.06 336.56 495.75 L 336.46 496.74 C 335.99 496.64 335.05 496.43 334.58 496.33 L 334.41 497.68 C 333.95 497.59 333.03 497.41 332.57 497.31 L 332.57 498.29 C 328.95 499.83 325.99 502.47 322.82 504.74 C 317.94 508.65 313.70 513.30 310.21 518.50 L 309.29 518.55 C 309.38 519.01 309.55 519.92 309.64 520.38 L 308.63 520.43 C 307.67 522.20 306.71 523.98 305.69 525.73 C 304.67 527.53 303.74 529.41 303.25 531.45 L 302.73 531.57 C 302.00 534.25 300.79 536.81 300.52 539.61 L 299.70 539.43 C 299.57 541.30 299.43 543.18 299.23 545.06 C 297.87 548.88 298.29 553.04 298.11 557.04 C 298.31 561.33 297.90 565.76 299.22 569.91 C 299.35 571.43 299.46 572.97 299.55 574.51 L 300.35 574.51 C 300.51 575.99 300.74 577.46 301.25 578.88 C 301.78 580.39 302.29 581.91 302.74 583.46 L 303.77 583.59 C 303.64 584.03 303.37 584.93 303.24 585.38 L 304.19 585.61 C 304.83 587.56 305.73 589.42 306.71 591.23 C 307.93 593.28 309.23 595.30 310.72 597.17 C 314.07 602.11 318.13 606.57 322.81 610.28 C 327.10 613.46 331.39 616.77 336.42 618.71 L 336.61 619.29 C 338.23 619.76 339.83 620.28 341.46 620.74 L 341.63 621.79 C 342.09 621.62 343.00 621.26 343.46 621.09 L 343.43 622.41 C 344.77 622.46 346.12 622.52 347.47 622.59 L 347.56 623.32 C 350.54 623.86 353.51 624.50 356.55 624.64 L 356.47 625.48 C 366.00 625.72 375.67 625.82 384.87 622.88 C 386.72 622.34 388.57 621.79 390.45 621.32 L 390.59 620.27 C 391.04 620.39 391.96 620.63 392.41 620.75 L 392.55 619.75 C 395.28 619.06 397.74 617.68 400.14 616.26 C 401.81 615.24 403.57 614.35 405.01 613.01 C 410.52 609.45 414.92 604.44 419.21 599.55 C 420.95 597.03 422.71 594.53 424.55 592.08 C 424.51 591.71 424.44 590.98 424.40 590.61 L 425.34 590.54 C 426.26 588.37 427.28 586.24 428.43 584.19 C 428.89 582.61 429.33 581.04 429.72 579.46 L 430.58 579.56 C 430.56 578.80 430.53 577.28 430.51 576.52 L 431.30 576.41 C 431.97 573.13 432.68 569.84 432.64 566.48 L 433.49 566.58 C 433.58 560.20 433.60 553.83 433.43 547.46 L 432.55 547.57 C 432.60 544.30 432.11 541.01 430.71 538.04 C 430.66 537.40 430.56 536.14 430.50 535.50 L 429.75 535.42 C 429.49 534.24 429.13 533.11 428.66 532.02 C 428.62 531.75 428.55 531.20 428.51 530.93 C 425.86 525.91 423.58 520.56 419.63 516.38 L 419.39 515.46 C 415.24 510.98 411.08 506.47 406.24 502.71 C 404.15 501.40 402.09 500.02 400.11 498.55 C 399.83 498.51 399.29 498.41 399.01 498.36 C 397.12 496.83 394.89 495.84 392.54 495.29 L 392.48 494.62 C 390.61 494.17 388.77 493.58 387.09 492.64 C 386.43 492.60 385.11 492.53 384.45 492.49 L 384.54 491.50 C 383.21 491.49 381.87 491.49 380.55 491.49 L 380.40 490.61 C 369.73 490.16 358.90 489.40 348.33 491.42 Z" />
</g>
<g id="#242069ff">
<path fill="#242069" opacity="1.00" d=" M 522.70 472.59 C 525.44 474.85 528.10 477.41 531.60 478.47 C 535.80 479.87 539.99 481.34 544.11 483.02 C 548.59 484.89 553.62 484.86 558.04 486.93 C 560.58 488.04 563.11 489.19 565.68 490.26 C 563.30 499.88 561.38 509.63 559.42 519.36 C 552.89 521.46 545.82 522.47 540.18 526.67 C 538.01 524.50 537.33 521.43 536.42 518.61 C 532.85 506.44 529.56 494.17 525.36 482.20 C 524.51 478.98 523.73 475.75 522.70 472.59 Z" />
</g>
<g id="#775178ff">
<path fill="#775178" opacity="1.00" d=" M 565.68 490.26 C 565.97 489.35 566.27 488.44 566.57 487.54 C 566.67 488.50 566.85 490.41 566.95 491.36 C 565.02 501.25 562.58 511.03 560.44 520.88 C 553.25 522.92 545.17 523.75 539.57 529.24 C 538.31 528.64 537.08 528.07 535.81 527.53 C 537.29 527.44 538.80 527.28 540.18 526.67 C 545.82 522.47 552.89 521.46 559.42 519.36 C 561.38 509.63 563.30 499.88 565.68 490.26 Z" />
</g>
<g id="#a683a1ff">
<path fill="#a683a1" opacity="1.00" d=" M 547.13 532.92 C 551.11 530.11 556.07 531.57 560.35 532.73 C 559.00 532.92 557.66 533.12 556.33 533.35 C 557.25 534.24 558.17 535.14 559.14 536.01 C 555.07 535.24 551.06 534.20 547.13 532.92 Z" />
</g>
<g id="#724c97ff">
<path fill="#724c97" opacity="1.00" d=" M 556.33 533.35 C 557.66 533.12 559.00 532.92 560.35 532.73 C 572.53 534.49 584.77 535.83 596.95 537.53 C 608.95 539.15 621.04 540.11 632.98 542.17 C 636.29 542.64 639.64 542.82 642.99 543.01 L 641.38 543.45 C 633.65 544.79 625.79 544.59 617.99 544.55 C 598.33 544.62 578.84 541.12 559.86 536.20 L 559.14 536.01 C 558.17 535.14 557.25 534.24 556.33 533.35 Z" />
</g>
</svg>
